<svg xmlns="http://www.w3.org/2000/svg" xmlns:xlink="http://www.w3.org/1999/xlink" xmlns:lucid="lucid" width="1293.73" height="998"><g transform="translate(-260 -300)" lucid:page-tab-id="0_0"><path d="M0 0h1760v1360H0z" fill="#fff"/><path d="M764.7 644.9h320.1v270H764.7z" fill="#b3ee9e"/><path d="M764.7 644.9h320.1v40H764.7z" fill="#8fbe7e"/><path d="M764.7 644.9h320.1v270H764.7zM764.7 684.9h320.1M924.75 684.9v230" stroke="#666" fill="none"/><use xlink:href="#a" transform="matrix(1,0,0,1,774.6987868100239,644.8995947170158) translate(134.25555555555556 27.111111111111114)"/><use xlink:href="#b" transform="matrix(1,0,0,1,769.6987868100239,687.3995947170158) translate(72.679 22.675)"/><use xlink:href="#c" transform="matrix(1,0,0,1,929.7507944717224,687.3995947170158) translate(27.323000000000008 19.675)"/><use xlink:href="#d" transform="matrix(1,0,0,1,929.7507944717224,687.3995947170158) translate(88.505 19.675)"/><use xlink:href="#e" transform="matrix(1,0,0,1,769.6987868100239,721.3995947170158) translate(26.314999999999998 16.675)"/><use xlink:href="#f" transform="matrix(1,0,0,1,929.7507944717224,721.3995947170158) translate(58.508 16.675)"/><use xlink:href="#g" transform="matrix(1,0,0,1,769.6987868100239,749.3995947170158) translate(23.551999999999992 16.675)"/><use xlink:href="#c" transform="matrix(1,0,0,1,929.7507944717224,749.3995947170158) translate(27.890000000000008 16.675)"/><use xlink:href="#h" transform="matrix(1,0,0,1,929.7507944717224,749.3995947170158) translate(89.072 16.675)"/><use xlink:href="#i" transform="matrix(1,0,0,1,769.6987868100239,777.3995947170158) translate(28.555999999999997 16.675)"/><use xlink:href="#f" transform="matrix(1,0,0,1,929.7507944717224,777.3995947170158) translate(58.508 16.675)"/><use xlink:href="#j" transform="matrix(1,0,0,1,769.6987868100239,805.3995947170158) translate(25.792999999999992 16.675)"/><use xlink:href="#c" transform="matrix(1,0,0,1,929.7507944717224,805.3995947170158) translate(27.890000000000008 16.675)"/><use xlink:href="#h" transform="matrix(1,0,0,1,929.7507944717224,805.3995947170158) translate(89.072 16.675)"/><use xlink:href="#k" transform="matrix(1,0,0,1,769.6987868100239,833.3995947170158) translate(28.727000000000004 16.675)"/><use xlink:href="#c" transform="matrix(1,0,0,1,929.7507944717224,833.3995947170158) translate(27.890000000000008 16.675)"/><use xlink:href="#h" transform="matrix(1,0,0,1,929.7507944717224,833.3995947170158) translate(89.072 16.675)"/><use xlink:href="#l" transform="matrix(1,0,0,1,769.6987868100239,861.3995947170158) translate(51.029 16.675)"/><use xlink:href="#c" transform="matrix(1,0,0,1,929.7507944717224,861.3995947170158) translate(27.890000000000008 16.675)"/><use xlink:href="#h" transform="matrix(1,0,0,1,929.7507944717224,861.3995947170158) translate(89.072 16.675)"/><use xlink:href="#m" transform="matrix(1,0,0,1,769.6987868100239,889.3995947170158) translate(40.472 16.675)"/><use xlink:href="#n" transform="matrix(1,0,0,1,929.7507944717224,889.3995947170158) translate(43.559 16.675)"/><path d="M1213.62 644.9h320.1v264h-320.1z" fill="#b3ee9e"/><path d="M1213.62 644.9h320.1v40h-320.1z" fill="#8fbe7e"/><path d="M1213.62 644.9h320.1v264h-320.1zM1213.62 684.9h320.1M1373.67 684.9v224" stroke="#666" fill="none"/><use xlink:href="#o" transform="matrix(1,0,0,1,1223.6220589929464,644.8995947170157) translate(119.22444444444444 27.111111111111114)"/><use xlink:href="#p" transform="matrix(1,0,0,1,1218.6220589929464,687.3995947170157) translate(68.525 17.1)"/><use xlink:href="#q" transform="matrix(1,0,0,1,1378.674066654645,687.3995947170157) translate(27.549999999999997 17.1)"/><use xlink:href="#r" transform="matrix(1,0,0,1,1378.674066654645,687.3995947170157) translate(87.45 17.1)"/><use xlink:href="#s" transform="matrix(1,0,0,1,1218.6220589929464,719.3995947170157) translate(53.025 17.1)"/><use xlink:href="#t" transform="matrix(1,0,0,1,1378.674066654645,719.3995947170157) translate(41.574999999999996 17.1)"/><use xlink:href="#u" transform="matrix(1,0,0,1,1218.6220589929464,751.3995947170157) translate(50.5 17.1)"/><use xlink:href="#t" transform="matrix(1,0,0,1,1378.674066654645,751.3995947170157) translate(41.574999999999996 17.1)"/><use xlink:href="#v" transform="matrix(1,0,0,1,1218.6220589929464,783.3995947170157) translate(43.525 17.1)"/><use xlink:href="#t" transform="matrix(1,0,0,1,1378.674066654645,783.3995947170157) translate(41.574999999999996 17.1)"/><use xlink:href="#w" transform="matrix(1,0,0,1,1218.6220589929464,815.3995947170157) translate(43.55 17.1)"/><use xlink:href="#x" transform="matrix(1,0,0,1,1378.674066654645,815.3995947170157) translate(36.55 17.1)"/><use xlink:href="#y" transform="matrix(1,0,0,1,1218.6220589929464,847.3995947170157) translate(32.025 17.1)"/><use xlink:href="#t" transform="matrix(1,0,0,1,1378.674066654645,847.3995947170157) translate(41.574999999999996 17.1)"/><use xlink:href="#z" transform="matrix(1,0,0,1,1218.6220589929464,879.3995947170157) translate(47.525 17.1)"/><use xlink:href="#t" transform="matrix(1,0,0,1,1378.674066654645,879.3995947170157) translate(41.574999999999996 17.1)"/><path d="M1085.3 844.9h51.9c6.64 0 12-5.37 12-12v-120c0-6.63 5.4-12 12-12h51.92" stroke="#666" fill="none"/><path d="M1085.3 845.4h-.5v-1h.5zM1213.62 701.4h-.5v-1h.5z" fill="#666"/><path d="M655.8 327.5c0-4.14 3.35-7.5 7.5-7.5h521.77c4.15 0 7.5 3.36 7.5 7.5v30.92c0 4.14-3.35 7.5-7.5 7.5H663.3c-4.15 0-7.5-3.36-7.5-7.5z" stroke="#000" stroke-opacity="0" stroke-width="2" fill="#fff" fill-opacity="0"/><use xlink:href="#A" transform="matrix(1,0,0,1,655.7927812445641,320) translate(146.74691358024688 26.555555555555557)"/><use xlink:href="#B" transform="matrix(1,0,0,1,655.7927812445641,320) translate(205.858024691358 26.555555555555557)"/><use xlink:href="#C" transform="matrix(1,0,0,1,655.7927812445641,320) translate(289.6604938271605 26.555555555555557)"/><use xlink:href="#D" transform="matrix(1,0,0,1,655.7927812445641,320) translate(319.24074074074076 26.555555555555557)"/><path d="M748.62 364.42h371.62M748.62 364.42h-3" stroke="#b2b2b2" stroke-width="2" fill="none"/><path d="M656.32 377.24c0-4.14 3.36-7.5 7.5-7.5h522.4c4.13 0 7.5 3.36 7.5 7.5v15.23c0 4.14-3.37 7.5-7.5 7.5H663.8c-4.14 0-7.5-3.36-7.5-7.5z" stroke="#000" stroke-opacity="0" stroke-width="2" fill="#fff" fill-opacity="0"/><use xlink:href="#E" transform="matrix(1,0,0,1,661.3239892375152,374.7444689781237) translate(112.93827160493825 14.222222222222223)"/><use xlink:href="#F" transform="matrix(1,0,0,1,661.3239892375152,374.7444689781237) translate(171.16049382716048 14.222222222222223)"/><use xlink:href="#G" transform="matrix(1,0,0,1,661.3239892375152,374.7444689781237) translate(241.03703703703704 14.222222222222223)"/><use xlink:href="#H" transform="matrix(1,0,0,1,661.3239892375152,374.7444689781237) translate(255.50617283950618 14.222222222222223)"/><use xlink:href="#I" transform="matrix(1,0,0,1,661.3239892375152,374.7444689781237) translate(347.25925925925924 14.222222222222223)"/><use xlink:href="#J" transform="matrix(1,0,0,1,661.3239892375152,374.7444689781237) translate(375.55555555555554 14.222222222222223)"/><path d="M280 440h320.1v214H280z" fill="#b3ee9e"/><path d="M280 440h320.1v40H280z" fill="#8fbe7e"/><path d="M280 440h320.1v214H280zM280 480h320.1M440.05 480v174" stroke="#666" fill="none"/><use xlink:href="#K" transform="matrix(1,0,0,1,290,440) translate(137.1 27.111111111111114)"/><use xlink:href="#b" transform="matrix(1,0,0,1,285,482.5) translate(72.679 22.675)"/><use xlink:href="#c" transform="matrix(1,0,0,1,445.05200766169855,482.5) translate(27.323000000000008 19.675)"/><use xlink:href="#d" transform="matrix(1,0,0,1,445.05200766169855,482.5) translate(88.505 19.675)"/><use xlink:href="#L" transform="matrix(1,0,0,1,285,516.5) translate(53.135000000000005 16.675)"/><use xlink:href="#M" transform="matrix(1,0,0,1,445.05200766169855,516.5) translate(39.68 16.675)"/><use xlink:href="#N" transform="matrix(1,0,0,1,285,544.5) translate(45.29600000000001 16.675)"/><use xlink:href="#M" transform="matrix(1,0,0,1,445.05200766169855,544.5) translate(39.68 16.675)"/><use xlink:href="#O" transform="matrix(1,0,0,1,285,572.5) translate(49.895 16.675)"/><use xlink:href="#M" transform="matrix(1,0,0,1,445.05200766169855,572.5) translate(39.68 16.675)"/><use xlink:href="#P" transform="matrix(1,0,0,1,285,600.5) translate(60.749 16.675)"/><use xlink:href="#M" transform="matrix(1,0,0,1,445.05200766169855,600.5) translate(39.68 16.675)"/><use xlink:href="#Q" transform="matrix(1,0,0,1,285,628.5) translate(56.726 16.675)"/><use xlink:href="#M" transform="matrix(1,0,0,1,445.05200766169855,628.5) translate(39.68 16.675)"/><path d="M280 840h320.1v438H280z" fill="#b3ee9e"/><path d="M280 840h320.1v40H280z" fill="#8fbe7e"/><path d="M280 840h320.1v438H280zM280 880h320.1M440.05 880v398" stroke="#666" fill="none"/><use xlink:href="#R" transform="matrix(1,0,0,1,290,840) translate(144.15777777777777 27.111111111111114)"/><use xlink:href="#b" transform="matrix(1,0,0,1,285,882.5) translate(72.679 22.675)"/><use xlink:href="#c" transform="matrix(1,0,0,1,445.05200766169855,882.5) translate(27.323000000000008 19.675)"/><use xlink:href="#d" transform="matrix(1,0,0,1,445.05200766169855,882.5) translate(88.505 19.675)"/><use xlink:href="#L" transform="matrix(1,0,0,1,285,916.5) translate(53.135000000000005 16.675)"/><use xlink:href="#M" transform="matrix(1,0,0,1,445.05200766169855,916.5) translate(39.68 16.675)"/><use xlink:href="#S" transform="matrix(1,0,0,1,285,944.5) translate(52.613 16.675)"/><use xlink:href="#M" transform="matrix(1,0,0,1,445.05200766169855,944.5) translate(39.68 16.675)"/><use xlink:href="#T" transform="matrix(1,0,0,1,285,972.5) translate(58.292 16.675)"/><use xlink:href="#U" transform="matrix(1,0,0,1,445.05200766169855,972.5) translate(47.384 16.675)"/><use xlink:href="#V" transform="matrix(1,0,0,1,285,1000.5) translate(14.425999999999995 16.675)"/><use xlink:href="#U" transform="matrix(1,0,0,1,445.05200766169855,1000.5) translate(47.384 16.675)"/><use xlink:href="#W" transform="matrix(1,0,0,1,285,1028.5) translate(28.043 16.675)"/><use xlink:href="#X" transform="matrix(1,0,0,1,445.05200766169855,1028.5) translate(43.865 16.675)"/><use xlink:href="#Y" transform="matrix(1,0,0,1,285,1056.5) translate(27.367999999999995 16.675)"/><use xlink:href="#M" transform="matrix(1,0,0,1,445.05200766169855,1056.5) translate(39.68 16.675)"/><use xlink:href="#Z" transform="matrix(1,0,0,1,285,1084.5) translate(20.177 16.675)"/><use xlink:href="#U" transform="matrix(1,0,0,1,445.05200766169855,1084.5) translate(47.384 16.675)"/><use xlink:href="#aa" transform="matrix(1,0,0,1,285,1112.5) translate(49.85900000000001 16.675)"/><use xlink:href="#U" transform="matrix(1,0,0,1,445.05200766169855,1112.5) translate(47.384 16.675)"/><use xlink:href="#ab" transform="matrix(1,0,0,1,285,1140.5) translate(9.952999999999989 16.675)"/><use xlink:href="#U" transform="matrix(1,0,0,1,445.05200766169855,1140.5) translate(47.384 16.675)"/><use xlink:href="#ac" transform="matrix(1,0,0,1,285,1168.5) translate(23.632999999999996 16.675)"/><use xlink:href="#M" transform="matrix(1,0,0,1,445.05200766169855,1168.5) translate(39.68 16.675)"/><use xlink:href="#ad" transform="matrix(1,0,0,1,285,1196.5) translate(33.52400000000001 16.675)"/><use xlink:href="#M" transform="matrix(1,0,0,1,445.05200766169855,1196.5) translate(39.68 16.675)"/><use xlink:href="#ae" transform="matrix(1,0,0,1,285,1224.5) translate(54.827000000000005 16.675)"/><use xlink:href="#M" transform="matrix(1,0,0,1,445.05200766169855,1224.5) translate(39.68 16.675)"/><use xlink:href="#af" transform="matrix(1,0,0,1,285,1252.5) translate(33.101000000000006 16.675)"/><use xlink:href="#ag" transform="matrix(1,0,0,1,445.05200766169855,1252.5) translate(29.249000000000002 16.675)"/><path d="M600.6 897h74.3c4.14 0 7.5-3.36 7.5-7.5v-9.1c0-4.14 3.36-7.5 7.5-7.5h74.3" stroke="#999" stroke-width="2" fill="none"/><path d="M600.6 898h-.5v-2h.5zM764.7 873.9h-.5v-2h.5z" fill="#999"/><path d="M600.6 497h74.3c4.14 0 7.5 3.36 7.5 7.5v248.9c0 4.14 3.36 7.5 7.5 7.5h74.3" stroke="#999" stroke-width="2" fill="none"/><path d="M600.6 498h-.5v-2h.5zM764.7 761.9h-.5v-2h.5z" fill="#999"/><path d="M600.6 497h74.3c4.14 0 7.5 3.36 7.5 7.5v304.9c0 4.14 3.36 7.5 7.5 7.5h74.3" stroke="#999" stroke-width="2" fill="none"/><path d="M600.6 498h-.5v-2h.5zM764.7 817.9h-.5v-2h.5z" fill="#999"/><path d="M716.48 849.63h48.22v29.63h-48.22z" fill="none"/><use xlink:href="#ah" transform="matrix(1,0,0,1,716.4765645878019,849.6296296296296) translate(9.5 18.6)"/><path d="M1084.8 820h48.23v29.63h-48.23z" fill="none"/><use xlink:href="#ah" transform="matrix(1,0,0,1,1084.802802133421,820) translate(9.5 18.6)"/><path d="M716.48 790.37h48.22V820h-48.22z" fill="none"/><g><use xlink:href="#ah" transform="matrix(1,0,0,1,716.4765645878019,790.3703703703704) translate(9.5 18.6)"/></g><path d="M716.48 731.1h48.22v29.64h-48.22z" fill="none"/><g><use xlink:href="#ah" transform="matrix(1,0,0,1,716.4765645878019,731.1111111111113) translate(9.5 18.6)"/></g><path d="M600.1 460h48.23v29.63H600.1z" fill="none"/><g><use xlink:href="#ai" transform="matrix(1,0,0,1,600.1040153233971,460) translate(9.5 18.6)"/></g><path d="M600.1 860h48.23v29.63H600.1z" fill="none"/><g><use xlink:href="#ai" transform="matrix(1,0,0,1,600.1040153233971,860) translate(9.5 18.6)"/></g><path d="M1165.4 680h48.22v29.63h-48.22z" fill="none"/><g><use xlink:href="#ai" transform="matrix(1,0,0,1,1165.3998367707245,680) translate(9.5 18.6)"/></g><path d="M1084.8 844.44h140v40h-140z" fill="none"/><g><use xlink:href="#aj" transform="matrix(1,0,0,1,1084.802802133421,844.4444444444443) translate(21.275 23.6)"/><use xlink:href="#ak" transform="matrix(1,0,0,1,1084.802802133421,844.4444444444443) translate(84.225 23.6)"/><use xlink:href="#al" transform="matrix(1,0,0,1,1084.802802133421,844.4444444444443) translate(108.225 23.6)"/></g><path d="M614.42 900h140v40h-140z" fill="none"/><g><use xlink:href="#am" transform="matrix(1,0,0,1,614.4242741301916,900) translate(33.275 23.6)"/><use xlink:href="#an" transform="matrix(1,0,0,1,614.4242741301916,900) translate(48.775 23.6)"/></g><path d="M620 425.3h140v40H620z" fill="none"/><g><use xlink:href="#am" transform="matrix(1,0,0,1,620,425.3046856647816) translate(12.825000000000003 23.6)"/><use xlink:href="#ao" transform="matrix(1,0,0,1,620,425.3046856647816) translate(28.325000000000003 23.6)"/><use xlink:href="#ap" transform="matrix(1,0,0,1,620,425.3046856647816) translate(91.275 23.6)"/></g><defs><path fill="#fff" d="M379-703c213 0 326 142 326 358 0 166-80 275-197 329-40 18-83 27-129 27C165 11 40-128 40-345c0-169 90-277 210-331 41-18 84-27 129-27zm0 644c158 0 234-122 234-284 0-165-74-290-237-290-161 0-244 120-244 286 0 167 84 288 247 288" id="aq"/><path fill="#fff" d="M316-434c-70 6-120 46-120 120v251l106 37V0H25v-26l88-36v-362l-92-27v-23l175-41v104c31-55 97-121 183-88v151h-26" id="ar"/><path fill="#fff" d="M255-509c65 0 107 14 141 47v-197l-94-28v-22c58-14 117-27 174-42v677l83 26v22L396 15c0-21-1-54 0-79-36 39-79 75-151 75C100 11 35-86 35-231c0-155 64-278 220-278zm141 125c-22-39-80-64-135-64-109 0-139 105-139 215 0 100 41 183 141 183 70 0 104-49 133-95v-239" id="as"/><path fill="#fff" d="M252-509c149 0 208 103 203 259H117c-1 108 29 194 135 194 63 0 113-26 147-60l44 43c-48 46-97 84-184 84C102 11 35-91 35-248c0-147 71-261 217-261zm126 200c19-124-147-176-220-93-20 23-30 59-37 93h257" id="at"/><g id="a"><use transform="matrix(0.017777777777777778,0,0,0.017777777777777778,0,0)" xlink:href="#aq"/><use transform="matrix(0.017777777777777778,0,0,0.017777777777777778,13.244444444444444,0)" xlink:href="#ar"/><use transform="matrix(0.017777777777777778,0,0,0.017777777777777778,20.40888888888889,0)" xlink:href="#as"/><use transform="matrix(0.017777777777777778,0,0,0.017777777777777778,30.524444444444445,0)" xlink:href="#at"/><use transform="matrix(0.017777777777777778,0,0,0.017777777777777778,39.324444444444445,0)" xlink:href="#ar"/></g><path fill="#333" d="M25-481l177-41v459l83 37V0H31v-26l88-37v-368l-94-27v-23zm200-200c0 37-21 56-62 56-42 0-63-18-63-54 0-37 21-55 63-55 41 0 62 18 62 53" id="au"/><path fill="#333" d="M255-509c65 0 107 14 141 47v-197l-94-28v-22c58-14 117-27 174-42v677l83 26v22L396 15c0-21-1-54 0-79-36 39-79 75-151 75C100 11 35-86 35-231c0-155 64-278 220-278zm141 125c-22-39-80-64-135-64-109 0-139 105-139 215 0 100 41 183 141 183 70 0 104-49 133-95v-239" id="av"/><g id="b"><use transform="matrix(0.018,0,0,0.018,0,0)" xlink:href="#au"/><use transform="matrix(0.018,0,0,0.018,5.3999999999999995,0)" xlink:href="#av"/></g><path fill="#333" d="M338-438c-74 0-103 54-140 95v280l78 37V0H26v-26l88-37v-360l-93-27v-23l177-41v91c34-39 85-86 153-86 100 1 162 43 162 145v301l88 37V0H346v-26l83-37v-298c-1-54-38-77-91-77" id="aw"/><path fill="#333" d="M337-34c-33 20-79 45-128 45-81 1-119-46-119-127v-315H4v-37l87-30v-131l83-30v161h145v67H173v306c1 40 13 70 55 70 28 0 64-17 80-30" id="ax"/><path fill="#333" d="M252-509c149 0 208 103 203 259H117c-1 108 29 194 135 194 63 0 113-26 147-60l44 43c-48 46-97 84-184 84C102 11 35-91 35-248c0-147 71-261 217-261zm126 200c19-124-147-176-220-93-20 23-30 59-37 93h257" id="ay"/><path fill="#333" d="M171-186c-28 9-72 68-16 82C280-73 468-83 468 67c0 156-143 209-304 189-82-10-142-52-142-145C22 27 92-8 149-37 93-44 7-71 46-139c18-31 57-50 88-68-72-42-81-200-12-260 44-38 127-63 198-37l158-15v34l-83 38c32 34 44 118 23 175-31 81-147 125-247 86zm38 159C146-1 71 69 114 158c30 63 162 55 218 18 29-19 55-47 51-93-7-88-92-94-174-110zm-29-235c60 75 184 20 169-81-9-64-29-114-99-116-98-3-122 132-70 197" id="az"/><path fill="#333" d="M316-434c-70 6-120 46-120 120v251l106 37V0H25v-26l88-36v-362l-92-27v-23l175-41v104c31-55 97-121 183-88v151h-26" id="aA"/><g id="c"><use transform="matrix(0.018,0,0,0.018,0,0)" xlink:href="#au"/><use transform="matrix(0.018,0,0,0.018,5.3999999999999995,0)" xlink:href="#aw"/><use transform="matrix(0.018,0,0,0.018,16.398,0)" xlink:href="#ax"/><use transform="matrix(0.018,0,0,0.018,22.554,0)" xlink:href="#ay"/><use transform="matrix(0.018,0,0,0.018,31.464,0)" xlink:href="#az"/><use transform="matrix(0.018,0,0,0.018,40.068,0)" xlink:href="#ay"/><use transform="matrix(0.018,0,0,0.018,48.977999999999994,0)" xlink:href="#aA"/></g><path fill="#333" d="M145-614c3-70 38-114 110-114h86v60h-56c-48-2-60 29-60 71l1 166c0 70-32 105-87 120 57 14 84 41 84 112v160c-1 48 4 89 54 89h60v60h-90c-138 7-104-163-104-287 0-65-26-101-93-98v-66c129 8 90-156 95-273" id="aB"/><path fill="#333" d="M321-692c143-6 225 50 225 190 0 186-148 226-344 214v225l88 37V0H24v-26l89-37v-566l-88-36v-26zm135 192c0-137-121-141-254-131v278c142 8 254-7 254-147" id="aC"/><path fill="#333" d="M541 1L218-352l266-280-73-31v-26h255v26l-74 35-261 270L604-62l80 37V1H541zM202-63l88 37V0H25v-26l89-37v-566l-89-36v-26h265v26l-88 36v566" id="aD"/><path fill="#333" d="M331-274c-130-7-91 153-96 270-3 70-37 114-109 114H38V50h58c48 2 60-29 60-71l-1-163c0-70 32-105 87-120-57-15-85-41-85-112 0-64-1-128-1-192-1-36-14-61-53-60H42v-60h91c139-6 104 166 104 290 0 65 26 102 94 98v66" id="aE"/><g id="d"><use transform="matrix(0.018,0,0,0.018,0,0)" xlink:href="#aB"/><use transform="matrix(0.018,0,0,0.018,6.425999999999999,0)" xlink:href="#aC"/><use transform="matrix(0.018,0,0,0.018,16.523999999999997,0)" xlink:href="#aD"/><use transform="matrix(0.018,0,0,0.018,28.745999999999995,0)" xlink:href="#aE"/></g><path fill="#333" d="M324 11c-66 0-101-13-136-46v229l110 33v26H20v-26l88-33v-614l-88-27v-24l168-41v77c37-38 77-75 149-74 145 2 210 98 210 243 0 155-67 277-223 277zm-6-61c110 0 142-104 142-214 0-101-41-181-141-184-65-2-102 52-128 94l1 240c23 39 70 64 126 64" id="aF"/><path fill="#333" d="M173-486c82-41 198-28 258 29v121h-26l-37-87c-26-17-56-25-95-25-109 0-151 95-151 205 0 107 52 191 158 191 55 0 83-24 113-54l47 42c-40 40-91 76-173 75C110 8 35-93 35-243c0-118 57-202 138-243" id="aG"/><path fill="#333" d="M25-711l178-41v689l94 37V0H31v-26l88-37v-598l-94-27v-23zm276 430L490-56l77 30V0H425L208-260l188-201-69-28v-24h239v24l-102 33" id="aH"/><path fill="#333" d="M250 11C150 11 92-32 92-134v-294L5-454v-24l171-40v381c0 54 35 77 87 77 74 0 108-53 145-95v-273l-88-26v-24l168-40v436l83 27v23L408 10v-86c-38 42-83 87-158 87" id="aI"/><path fill="#333" d="M0 125V75h500v50H0" id="aJ"/><path fill="#333" d="M233-514c87 3 156 45 156 132v302l83 27v23L310 12v-71c-35 38-70 69-138 70C85 12 27-46 30-134c4-141 149-158 281-173-1-16 1-41 0-60-1-92-140-105-204-56l-36 86H45c1-38-1-78 1-114 49-38 100-66 187-63zm77 261c-95 7-197 18-199 118-1 55 31 89 86 87 57-2 84-40 113-72v-133" id="aK"/><g id="e"><use transform="matrix(0.018,0,0,0.018,0,0)" xlink:href="#aF"/><use transform="matrix(0.018,0,0,0.018,10.475999999999999,0)" xlink:href="#au"/><use transform="matrix(0.018,0,0,0.018,15.875999999999996,0)" xlink:href="#aG"/><use transform="matrix(0.018,0,0,0.018,24.245999999999995,0)" xlink:href="#aH"/><use transform="matrix(0.018,0,0,0.018,34.361999999999995,0)" xlink:href="#aI"/><use transform="matrix(0.018,0,0,0.018,44.91,0)" xlink:href="#aF"/><use transform="matrix(0.018,0,0,0.018,55.385999999999996,0)" xlink:href="#aJ"/><use transform="matrix(0.018,0,0,0.018,64.386,0)" xlink:href="#av"/><use transform="matrix(0.018,0,0,0.018,74.628,0)" xlink:href="#aK"/><use transform="matrix(0.018,0,0,0.018,83.30400000000002,0)" xlink:href="#ax"/><use transform="matrix(0.018,0,0,0.018,89.46000000000001,0)" xlink:href="#ay"/></g><g id="f"><use transform="matrix(0.018,0,0,0.018,0,0)" xlink:href="#av"/><use transform="matrix(0.018,0,0,0.018,10.241999999999999,0)" xlink:href="#aK"/><use transform="matrix(0.018,0,0,0.018,18.918,0)" xlink:href="#ax"/><use transform="matrix(0.018,0,0,0.018,25.073999999999998,0)" xlink:href="#ay"/></g><path fill="#333" d="M229-509c47 0 105 15 135 34v127h-26l-37-86c-64-27-173-19-165 61 8 84 122 76 177 120 33 26 64 57 62 116-3 100-76 148-174 148C136 11 92-5 50-31v-127h26l36 87c55 34 183 31 177-55-7-93-117-87-177-128-34-23-63-52-61-109 3-102 78-146 178-146" id="aL"/><path fill="#333" d="M276-509c158 0 231 103 231 260 0 153-81 260-233 260C115 11 35-90 35-249c0-153 87-260 241-260zm-1 459c107 0 145-91 145-199s-37-199-145-199-153 91-153 199c0 109 43 199 153 199" id="aM"/><g id="g"><use transform="matrix(0.018,0,0,0.018,0,0)" xlink:href="#aF"/><use transform="matrix(0.018,0,0,0.018,10.475999999999999,0)" xlink:href="#au"/><use transform="matrix(0.018,0,0,0.018,15.875999999999996,0)" xlink:href="#aG"/><use transform="matrix(0.018,0,0,0.018,24.245999999999995,0)" xlink:href="#aH"/><use transform="matrix(0.018,0,0,0.018,34.361999999999995,0)" xlink:href="#aI"/><use transform="matrix(0.018,0,0,0.018,44.91,0)" xlink:href="#aF"/><use transform="matrix(0.018,0,0,0.018,55.385999999999996,0)" xlink:href="#aJ"/><use transform="matrix(0.018,0,0,0.018,64.386,0)" xlink:href="#aL"/><use transform="matrix(0.018,0,0,0.018,72.036,0)" xlink:href="#ax"/><use transform="matrix(0.018,0,0,0.018,78.19200000000001,0)" xlink:href="#aM"/><use transform="matrix(0.018,0,0,0.018,87.94800000000001,0)" xlink:href="#aA"/><use transform="matrix(0.018,0,0,0.018,94.98600000000003,0)" xlink:href="#ay"/></g><path fill="#333" d="M27-26l87-37v-566l-89-37v-26h463v187h-25l-49-114H205v232h146l35-94h22v259h-22l-35-92H204v251l110 37V0H27v-26" id="aN"/><g id="h"><use transform="matrix(0.018,0,0,0.018,0,0)" xlink:href="#aB"/><use transform="matrix(0.018,0,0,0.018,6.425999999999999,0)" xlink:href="#aN"/><use transform="matrix(0.018,0,0,0.018,15.389999999999997,0)" xlink:href="#aD"/><use transform="matrix(0.018,0,0,0.018,27.611999999999995,0)" xlink:href="#aE"/></g><g id="i"><use transform="matrix(0.018,0,0,0.018,0,0)" xlink:href="#aA"/><use transform="matrix(0.018,0,0,0.018,7.037999999999999,0)" xlink:href="#ay"/><use transform="matrix(0.018,0,0,0.018,15.948,0)" xlink:href="#ax"/><use transform="matrix(0.018,0,0,0.018,22.104,0)" xlink:href="#aI"/><use transform="matrix(0.018,0,0,0.018,32.652,0)" xlink:href="#aA"/><use transform="matrix(0.018,0,0,0.018,39.906,0)" xlink:href="#aw"/><use transform="matrix(0.018,0,0,0.018,50.903999999999996,0)" xlink:href="#aJ"/><use transform="matrix(0.018,0,0,0.018,59.903999999999996,0)" xlink:href="#av"/><use transform="matrix(0.018,0,0,0.018,70.146,0)" xlink:href="#aK"/><use transform="matrix(0.018,0,0,0.018,78.82200000000002,0)" xlink:href="#ax"/><use transform="matrix(0.018,0,0,0.018,84.97800000000001,0)" xlink:href="#ay"/></g><g id="j"><use transform="matrix(0.018,0,0,0.018,0,0)" xlink:href="#aA"/><use transform="matrix(0.018,0,0,0.018,7.037999999999999,0)" xlink:href="#ay"/><use transform="matrix(0.018,0,0,0.018,15.948,0)" xlink:href="#ax"/><use transform="matrix(0.018,0,0,0.018,22.104,0)" xlink:href="#aI"/><use transform="matrix(0.018,0,0,0.018,32.652,0)" xlink:href="#aA"/><use transform="matrix(0.018,0,0,0.018,39.906,0)" xlink:href="#aw"/><use transform="matrix(0.018,0,0,0.018,50.903999999999996,0)" xlink:href="#aJ"/><use transform="matrix(0.018,0,0,0.018,59.903999999999996,0)" xlink:href="#aL"/><use transform="matrix(0.018,0,0,0.018,67.554,0)" xlink:href="#ax"/><use transform="matrix(0.018,0,0,0.018,73.71000000000001,0)" xlink:href="#aM"/><use transform="matrix(0.018,0,0,0.018,83.46600000000001,0)" xlink:href="#aA"/><use transform="matrix(0.018,0,0,0.018,90.50400000000002,0)" xlink:href="#ay"/></g><path fill="#333" d="M330-441c-71 2-99 56-135 95v283l83 37V0H27v-26l87-36v-361l-93-27v-23l174-41v90c37-40 87-85 159-85 64 1 125 34 134 93 42-42 86-91 165-93 99-3 146 54 145 151v295l89 37V0H632v-26l82-36v-300c1-48-32-81-80-79-71 4-99 57-137 97l1 281 83 37V0H338v-26l76-36v-299c1-48-37-82-84-80" id="aO"/><path fill="#333" d="M202-63l88 37V0H25v-26l89-37v-566l-89-36v-26h265v26l-88 36v566" id="aP"/><path fill="#333" d="M294 0C209 0 108 2 25-1v-26l89-37v-571l-89-37v-26h292c227 1 370 93 370 321C687-133 537 0 294 0zm-92-68c248 21 391-75 393-304 2-221-163-272-393-256v560" id="aQ"/><g id="k"><use transform="matrix(0.018,0,0,0.018,0,0)" xlink:href="#aG"/><use transform="matrix(0.018,0,0,0.018,8.37,0)" xlink:href="#aI"/><use transform="matrix(0.018,0,0,0.018,18.918,0)" xlink:href="#aL"/><use transform="matrix(0.018,0,0,0.018,26.567999999999998,0)" xlink:href="#ax"/><use transform="matrix(0.018,0,0,0.018,32.724,0)" xlink:href="#aM"/><use transform="matrix(0.018,0,0,0.018,42.48,0)" xlink:href="#aO"/><use transform="matrix(0.018,0,0,0.018,58.62599999999999,0)" xlink:href="#ay"/><use transform="matrix(0.018,0,0,0.018,67.53599999999999,0)" xlink:href="#aA"/><use transform="matrix(0.018,0,0,0.018,74.78999999999999,0)" xlink:href="#aP"/><use transform="matrix(0.018,0,0,0.018,80.46,0)" xlink:href="#aQ"/></g><g id="l"><use transform="matrix(0.018,0,0,0.018,0,0)" xlink:href="#aG"/><use transform="matrix(0.018,0,0,0.018,8.37,0)" xlink:href="#aK"/><use transform="matrix(0.018,0,0,0.018,17.046,0)" xlink:href="#aA"/><use transform="matrix(0.018,0,0,0.018,24.299999999999997,0)" xlink:href="#aJ"/><use transform="matrix(0.018,0,0,0.018,33.3,0)" xlink:href="#au"/><use transform="matrix(0.018,0,0,0.018,38.699999999999996,0)" xlink:href="#av"/></g><g id="m"><use transform="matrix(0.018,0,0,0.018,0,0)" xlink:href="#aA"/><use transform="matrix(0.018,0,0,0.018,7.037999999999999,0)" xlink:href="#ay"/><use transform="matrix(0.018,0,0,0.018,15.948,0)" xlink:href="#ax"/><use transform="matrix(0.018,0,0,0.018,22.104,0)" xlink:href="#aI"/><use transform="matrix(0.018,0,0,0.018,32.652,0)" xlink:href="#aA"/><use transform="matrix(0.018,0,0,0.018,39.906,0)" xlink:href="#aw"/><use transform="matrix(0.018,0,0,0.018,50.903999999999996,0)" xlink:href="#ay"/><use transform="matrix(0.018,0,0,0.018,59.81399999999999,0)" xlink:href="#av"/></g><path fill="#333" d="M309 11c-66 0-102-14-137-47L94 0v-659L0-687v-22l176-39v312c35-40 73-73 142-73 146 0 217 97 217 242 0 157-70 278-226 278zm-6-61c110 0 145-104 145-215 0-101-47-178-148-181-65-2-98 48-124 91v239c23 39 71 66 127 66" id="aR"/><path fill="#333" d="M25-711l178-41v689l94 37V0H31v-26l88-37v-598l-94-27v-23" id="aS"/><g id="n"><use transform="matrix(0.018,0,0,0.018,0,0)" xlink:href="#aR"/><use transform="matrix(0.018,0,0,0.018,10.26,0)" xlink:href="#aM"/><use transform="matrix(0.018,0,0,0.018,20.016,0)" xlink:href="#aM"/><use transform="matrix(0.018,0,0,0.018,29.772,0)" xlink:href="#aS"/><use transform="matrix(0.018,0,0,0.018,35.298,0)" xlink:href="#ay"/><use transform="matrix(0.018,0,0,0.018,44.208,0)" xlink:href="#aK"/><use transform="matrix(0.018,0,0,0.018,52.88400000000001,0)" xlink:href="#aw"/></g><path fill="#fff" d="M132-342c0 173 96 276 269 282 42 1 59-9 91-19l63-127h26L568-41c-55 26-100 52-177 52C176 11 40-119 40-336c0-172 87-283 210-339 92-42 242-34 324 6 2 52 0 118 1 175h-28l-48-128c-31-8-70-11-110-11-170 0-257 121-257 291" id="aT"/><path fill="#fff" d="M250 11C150 11 92-32 92-134v-294L5-454v-24l171-40v381c0 54 35 77 87 77 74 0 108-53 145-95v-273l-88-26v-24l168-40v436l83 27v23L408 10v-86c-38 42-83 87-158 87" id="aU"/><path fill="#fff" d="M229-509c47 0 105 15 135 34v127h-26l-37-86c-64-27-173-19-165 61 8 84 122 76 177 120 33 26 64 57 62 116-3 100-76 148-174 148C136 11 92-5 50-31v-127h26l36 87c55 34 183 31 177-55-7-93-117-87-177-128-34-23-63-52-61-109 3-102 78-146 178-146" id="aV"/><path fill="#fff" d="M337-34c-33 20-79 45-128 45-81 1-119-46-119-127v-315H4v-37l87-30v-131l83-30v161h145v67H173v306c1 40 13 70 55 70 28 0 64-17 80-30" id="aW"/><path fill="#fff" d="M276-509c158 0 231 103 231 260 0 153-81 260-233 260C115 11 35-90 35-249c0-153 87-260 241-260zm-1 459c107 0 145-91 145-199s-37-199-145-199-153 91-153 199c0 109 43 199 153 199" id="aX"/><path fill="#fff" d="M330-441c-71 2-99 56-135 95v283l83 37V0H27v-26l87-36v-361l-93-27v-23l174-41v90c37-40 87-85 159-85 64 1 125 34 134 93 42-42 86-91 165-93 99-3 146 54 145 151v295l89 37V0H632v-26l82-36v-300c1-48-32-81-80-79-71 4-99 57-137 97l1 281 83 37V0H338v-26l76-36v-299c1-48-37-82-84-80" id="aY"/><g id="o"><use transform="matrix(0.017777777777777778,0,0,0.017777777777777778,0,0)" xlink:href="#aT"/><use transform="matrix(0.017777777777777778,0,0,0.017777777777777778,10.95111111111111,0)" xlink:href="#aU"/><use transform="matrix(0.017777777777777778,0,0,0.017777777777777778,21.36888888888889,0)" xlink:href="#aV"/><use transform="matrix(0.017777777777777778,0,0,0.017777777777777778,28.924444444444447,0)" xlink:href="#aW"/><use transform="matrix(0.017777777777777778,0,0,0.017777777777777778,35.004444444444445,0)" xlink:href="#aX"/><use transform="matrix(0.017777777777777778,0,0,0.017777777777777778,44.64,0)" xlink:href="#aY"/><use transform="matrix(0.017777777777777778,0,0,0.017777777777777778,60.586666666666666,0)" xlink:href="#at"/><use transform="matrix(0.017777777777777778,0,0,0.017777777777777778,69.38666666666667,0)" xlink:href="#ar"/></g><path fill="#333" d="M24-231v-30h32v30H24zM24 0v-190h32V0H24" id="aZ"/><path fill="#333" d="M85-194c31 0 48 13 60 33l-1-100h32l1 261h-30c-2-10 0-23-3-31C134-8 116 4 85 4 32 4 16-35 15-94c0-66 23-100 70-100zm9 24c-40 0-46 34-46 75 0 40 6 74 45 74 42 0 51-32 51-76 0-42-9-74-50-73" id="ba"/><g id="p"><use transform="matrix(0.05,0,0,0.05,0,0)" xlink:href="#aZ"/><use transform="matrix(0.05,0,0,0.05,3.95,0)" xlink:href="#ba"/></g><path fill="#333" d="M117-194c89-4 53 116 60 194h-32v-121c0-31-8-49-39-48C34-167 62-67 57 0H25l-1-190h30c1 10-1 24 2 32 11-22 29-35 61-36" id="bb"/><path fill="#333" d="M59-47c-2 24 18 29 38 22v24C64 9 27 4 27-40v-127H5v-23h24l9-43h21v43h35v23H59v120" id="bc"/><path fill="#333" d="M100-194c63 0 86 42 84 106H49c0 40 14 67 53 68 26 1 43-12 49-29l28 8c-11 28-37 45-77 45C44 4 14-33 15-96c1-61 26-98 85-98zm52 81c6-60-76-77-97-28-3 7-6 17-6 28h103" id="bd"/><path fill="#333" d="M177-190C167-65 218 103 67 71c-23-6-38-20-44-43l32-5c15 47 100 32 89-28v-30C133-14 115 1 83 1 29 1 15-40 15-95c0-56 16-97 71-98 29-1 48 16 59 35 1-10 0-23 2-32h30zM94-22c36 0 50-32 50-73 0-42-14-75-50-75-39 0-46 34-46 75s6 73 46 73" id="be"/><path fill="#333" d="M114-163C36-179 61-72 57 0H25l-1-190h30c1 12-1 29 2 39 6-27 23-49 58-41v29" id="bf"/><g id="q"><use transform="matrix(0.05,0,0,0.05,0,0)" xlink:href="#aZ"/><use transform="matrix(0.05,0,0,0.05,3.95,0)" xlink:href="#bb"/><use transform="matrix(0.05,0,0,0.05,13.949999999999998,0)" xlink:href="#bc"/><use transform="matrix(0.05,0,0,0.05,18.95,0)" xlink:href="#bd"/><use transform="matrix(0.05,0,0,0.05,28.950000000000003,0)" xlink:href="#be"/><use transform="matrix(0.05,0,0,0.05,38.95,0)" xlink:href="#bd"/><use transform="matrix(0.05,0,0,0.05,48.95,0)" xlink:href="#bf"/></g><path fill="#333" d="M39-94c74 12-11 154 75 146v23c-44 4-70-10-70-52C44-23 55-84 6-82v-22c81 4-7-162 84-157h24v23c-82-15-2 131-75 144" id="bg"/><path fill="#333" d="M30-248c87 1 191-15 191 75 0 78-77 80-158 76V0H30v-248zm33 125c57 0 124 11 124-50 0-59-68-47-124-48v98" id="bh"/><path fill="#333" d="M194 0L95-120 63-95V0H30v-248h33v124l119-124h40L117-140 236 0h-42" id="bi"/><path fill="#333" d="M76-40C78 24 84 88 6 75V52C86 64 9-79 80-94c-40-6-34-59-34-106 1-29-11-41-40-38v-23c44-4 70 10 70 52 0 47-12 108 38 105v22c-26 1-39 14-38 42" id="bj"/><g id="r"><use transform="matrix(0.05,0,0,0.05,0,0)" xlink:href="#bg"/><use transform="matrix(0.05,0,0,0.05,6,0)" xlink:href="#bh"/><use transform="matrix(0.05,0,0,0.05,18,0)" xlink:href="#bi"/><use transform="matrix(0.05,0,0,0.05,30,0)" xlink:href="#bj"/></g><path fill="#333" d="M141-36C126-15 110 5 73 4 37 3 15-17 15-53c-1-64 63-63 125-63 3-35-9-54-41-54-24 1-41 7-42 31l-33-3c5-37 33-52 76-52 45 0 72 20 72 64v82c-1 20 7 32 28 27v20c-31 9-61-2-59-35zM48-53c0 20 12 33 32 33 41-3 63-29 60-74-43 2-92-5-92 41" id="bk"/><path fill="#333" d="M210-169c-67 3-38 105-44 169h-31v-121c0-29-5-50-35-48C34-165 62-65 56 0H25l-1-190h30c1 10-1 24 2 32 10-44 99-50 107 0 11-21 27-35 58-36 85-2 47 119 55 194h-31v-121c0-29-5-49-35-48" id="bl"/><g id="s"><use transform="matrix(0.05,0,0,0.05,0,0)" xlink:href="#bb"/><use transform="matrix(0.05,0,0,0.05,10,0)" xlink:href="#bk"/><use transform="matrix(0.05,0,0,0.05,20,0)" xlink:href="#bl"/><use transform="matrix(0.05,0,0,0.05,34.95,0)" xlink:href="#bd"/></g><path fill="#333" d="M96-169c-40 0-48 33-48 73s9 75 48 75c24 0 41-14 43-38l32 2c-6 37-31 61-74 61-59 0-76-41-82-99-10-93 101-131 147-64 4 7 5 14 7 22l-32 3c-4-21-16-35-41-35" id="bm"/><path fill="#333" d="M106-169C34-169 62-67 57 0H25v-261h32l-1 103c12-21 28-36 61-36 89 0 53 116 60 194h-32v-121c2-32-8-49-39-48" id="bn"/><path fill="#333" d="M101-234c-31-9-42 10-38 44h38v23H63V0H32v-167H5v-23h27c-7-52 17-82 69-68v24" id="bo"/><path fill="#333" d="M24 0v-261h32V0H24" id="bp"/><g id="t"><use transform="matrix(0.05,0,0,0.05,0,0)" xlink:href="#bm"/><use transform="matrix(0.05,0,0,0.05,9,0)" xlink:href="#bn"/><use transform="matrix(0.05,0,0,0.05,19,0)" xlink:href="#bk"/><use transform="matrix(0.05,0,0,0.05,29,0)" xlink:href="#bf"/><use transform="matrix(0.05,0,0,0.05,34.95,0)" xlink:href="#bo"/><use transform="matrix(0.05,0,0,0.05,39.95,0)" xlink:href="#aZ"/><use transform="matrix(0.05,0,0,0.05,43.900000000000006,0)" xlink:href="#bd"/><use transform="matrix(0.05,0,0,0.05,53.900000000000006,0)" xlink:href="#bp"/><use transform="matrix(0.05,0,0,0.05,57.85,0)" xlink:href="#ba"/></g><path fill="#333" d="M115-194c55 1 70 41 70 98S169 2 115 4C84 4 66-9 55-30l1 105H24l-1-265h31l2 30c10-21 28-34 59-34zm-8 174c40 0 45-34 45-75s-6-73-45-74c-42 0-51 32-51 76 0 43 10 73 51 73" id="bq"/><path fill="#333" d="M100-194c62-1 85 37 85 99 1 63-27 99-86 99S16-35 15-95c0-66 28-99 85-99zM99-20c44 1 53-31 53-75 0-43-8-75-51-75s-53 32-53 75 10 74 51 75" id="br"/><g id="u"><use transform="matrix(0.05,0,0,0.05,0,0)" xlink:href="#bq"/><use transform="matrix(0.05,0,0,0.05,10,0)" xlink:href="#bn"/><use transform="matrix(0.05,0,0,0.05,20,0)" xlink:href="#br"/><use transform="matrix(0.05,0,0,0.05,30,0)" xlink:href="#bb"/><use transform="matrix(0.05,0,0,0.05,40,0)" xlink:href="#bd"/></g><path fill="#333" d="M135-143c-3-34-86-38-87 0 15 53 115 12 119 90S17 21 10-45l28-5c4 36 97 45 98 0-10-56-113-15-118-90-4-57 82-63 122-42 12 7 21 19 24 35" id="bs"/><g id="v"><use transform="matrix(0.05,0,0,0.05,0,0)" xlink:href="#bk"/><use transform="matrix(0.05,0,0,0.05,10,0)" xlink:href="#ba"/><use transform="matrix(0.05,0,0,0.05,20,0)" xlink:href="#ba"/><use transform="matrix(0.05,0,0,0.05,30,0)" xlink:href="#bf"/><use transform="matrix(0.05,0,0,0.05,35.95,0)" xlink:href="#bd"/><use transform="matrix(0.05,0,0,0.05,45.95,0)" xlink:href="#bs"/><use transform="matrix(0.05,0,0,0.05,54.95,0)" xlink:href="#bs"/></g><path fill="#333" d="M115-194c53 0 69 39 70 98 0 66-23 100-70 100C84 3 66-7 56-30L54 0H23l1-261h32v101c10-23 28-34 59-34zm-8 174c40 0 45-34 45-75 0-40-5-75-45-74-42 0-51 32-51 76 0 43 10 73 51 73" id="bt"/><path fill="#333" d="M179-190L93 31C79 59 56 82 12 73V49c39 6 53-20 64-50L1-190h34L92-34l54-156h33" id="bu"/><g id="w"><use transform="matrix(0.05,0,0,0.05,0,0)" xlink:href="#bt"/><use transform="matrix(0.05,0,0,0.05,10,0)" xlink:href="#aZ"/><use transform="matrix(0.05,0,0,0.05,13.949999999999998,0)" xlink:href="#bf"/><use transform="matrix(0.05,0,0,0.05,19.9,0)" xlink:href="#bc"/><use transform="matrix(0.05,0,0,0.05,24.9,0)" xlink:href="#bn"/><use transform="matrix(0.05,0,0,0.05,34.9,0)" xlink:href="#ba"/><use transform="matrix(0.05,0,0,0.05,44.9,0)" xlink:href="#bk"/><use transform="matrix(0.05,0,0,0.05,54.900000000000006,0)" xlink:href="#bu"/></g><path fill="#333" d="M-5 72V49h209v23H-5" id="bv"/><g id="x"><use transform="matrix(0.05,0,0,0.05,0,0)" xlink:href="#ba"/><use transform="matrix(0.05,0,0,0.05,10,0)" xlink:href="#bk"/><use transform="matrix(0.05,0,0,0.05,20,0)" xlink:href="#bc"/><use transform="matrix(0.05,0,0,0.05,25,0)" xlink:href="#bd"/><use transform="matrix(0.05,0,0,0.05,35,0)" xlink:href="#bv"/><use transform="matrix(0.05,0,0,0.05,45,0)" xlink:href="#bo"/><use transform="matrix(0.05,0,0,0.05,50,0)" xlink:href="#aZ"/><use transform="matrix(0.05,0,0,0.05,53.95,0)" xlink:href="#bd"/><use transform="matrix(0.05,0,0,0.05,63.95,0)" xlink:href="#bp"/><use transform="matrix(0.05,0,0,0.05,67.9,0)" xlink:href="#ba"/></g><path fill="#333" d="M84 4C-5 8 30-112 23-190h32v120c0 31 7 50 39 49 72-2 45-101 50-169h31l1 190h-30c-1-10 1-25-2-33-11 22-28 36-60 37" id="bw"/><g id="y"><use transform="matrix(0.05,0,0,0.05,0,0)" xlink:href="#br"/><use transform="matrix(0.05,0,0,0.05,10,0)" xlink:href="#bm"/><use transform="matrix(0.05,0,0,0.05,19,0)" xlink:href="#bm"/><use transform="matrix(0.05,0,0,0.05,28,0)" xlink:href="#bw"/><use transform="matrix(0.05,0,0,0.05,38,0)" xlink:href="#bq"/><use transform="matrix(0.05,0,0,0.05,48,0)" xlink:href="#bk"/><use transform="matrix(0.05,0,0,0.05,58,0)" xlink:href="#bc"/><use transform="matrix(0.05,0,0,0.05,63,0)" xlink:href="#aZ"/><use transform="matrix(0.05,0,0,0.05,66.95,0)" xlink:href="#br"/><use transform="matrix(0.05,0,0,0.05,76.95,0)" xlink:href="#bb"/></g><g id="z"><use transform="matrix(0.05,0,0,0.05,0,0)" xlink:href="#be"/><use transform="matrix(0.05,0,0,0.05,10,0)" xlink:href="#bd"/><use transform="matrix(0.05,0,0,0.05,20,0)" xlink:href="#bb"/><use transform="matrix(0.05,0,0,0.05,30,0)" xlink:href="#ba"/><use transform="matrix(0.05,0,0,0.05,40,0)" xlink:href="#bd"/><use transform="matrix(0.05,0,0,0.05,50,0)" xlink:href="#bf"/></g><path fill="#b2b2b2" d="M240-174c0 40-23 61-54 70L253 0h-59l-57-94H76V0H24v-248c93 4 217-23 216 74zM76-134c48-2 112 12 112-38 0-48-66-32-112-35v73" id="bx"/><path fill="#b2b2b2" d="M185-48c-13 30-37 53-82 52C43 2 14-33 14-96s30-98 90-98c62 0 83 45 84 108H66c0 31 8 55 39 56 18 0 30-7 34-22zm-45-69c5-46-57-63-70-21-2 6-4 13-4 21h74" id="by"/><path fill="#b2b2b2" d="M135-194c87-1 58 113 63 194h-50c-7-57 23-157-34-157-59 0-34 97-39 157H25l-1-190h47c2 12-1 28 3 38 12-26 28-41 61-42" id="bz"/><path fill="#b2b2b2" d="M115-3C79 11 28 4 28-45v-112H4v-33h27l15-45h31v45h36v33H77v99c-1 23 16 31 38 25v30" id="bA"/><path fill="#b2b2b2" d="M133-34C117-15 103 5 69 4 32 3 11-16 11-54c-1-60 55-63 116-61 1-26-3-47-28-47-18 1-26 9-28 27l-52-2c7-38 36-58 82-57s74 22 75 68l1 82c-1 14 12 18 25 15v27c-30 8-71 5-69-32zm-48 3c29 0 43-24 42-57-32 0-66-3-65 30 0 17 8 27 23 27" id="bB"/><path fill="#b2b2b2" d="M25 0v-261h50V0H25" id="bC"/><g id="A"><use transform="matrix(0.04938271604938272,0,0,0.04938271604938272,0,0)" xlink:href="#bx"/><use transform="matrix(0.04938271604938272,0,0,0.04938271604938272,12.790123456790125,0)" xlink:href="#by"/><use transform="matrix(0.04938271604938272,0,0,0.04938271604938272,22.66666666666667,0)" xlink:href="#bz"/><use transform="matrix(0.04938271604938272,0,0,0.04938271604938272,33.48148148148149,0)" xlink:href="#bA"/><use transform="matrix(0.04938271604938272,0,0,0.04938271604938272,39.35802469135803,0)" xlink:href="#bB"/><use transform="matrix(0.04938271604938272,0,0,0.04938271604938272,49.23456790123458,0)" xlink:href="#bC"/></g><path fill="#b2b2b2" d="M24-248c120-7 223 5 221 122C244-46 201 0 124 0H24v-248zM76-40c74 7 117-18 117-86 0-67-45-88-117-82v168" id="bD"/><path fill="#b2b2b2" d="M135-194c52 0 70 43 70 98 0 56-19 99-73 100-30 1-46-15-58-35L72 0H24l1-261h50v104c11-23 29-37 60-37zM114-30c31 0 40-27 40-66 0-37-7-63-39-63s-41 28-41 65c0 36 8 64 40 64" id="bE"/><path fill="#b2b2b2" d="M137-138c1-29-70-34-71-4 15 46 118 7 119 86 1 83-164 76-172 9l43-7c4 19 20 25 44 25 33 8 57-30 24-41C81-84 22-81 20-136c-2-80 154-74 161-7" id="bF"/><g id="B"><use transform="matrix(0.04938271604938272,0,0,0.04938271604938272,0,0)" xlink:href="#bD"/><use transform="matrix(0.04938271604938272,0,0,0.04938271604938272,12.790123456790125,0)" xlink:href="#bB"/><use transform="matrix(0.04938271604938272,0,0,0.04938271604938272,22.66666666666667,0)" xlink:href="#bA"/><use transform="matrix(0.04938271604938272,0,0,0.04938271604938272,28.54320987654322,0)" xlink:href="#bB"/><use transform="matrix(0.04938271604938272,0,0,0.04938271604938272,38.41975308641976,0)" xlink:href="#bE"/><use transform="matrix(0.04938271604938272,0,0,0.04938271604938272,49.23456790123458,0)" xlink:href="#bB"/><use transform="matrix(0.04938271604938272,0,0,0.04938271604938272,59.111111111111114,0)" xlink:href="#bF"/><use transform="matrix(0.04938271604938272,0,0,0.04938271604938272,68.98765432098767,0)" xlink:href="#by"/></g><path fill="#b2b2b2" d="M24 0v-248h195v40H76v63h132v40H76v65h150V0H24" id="bG"/><g id="C"><use transform="matrix(0.04938271604938272,0,0,0.04938271604938272,0,0)" xlink:href="#bG"/><use transform="matrix(0.04938271604938272,0,0,0.04938271604938272,11.851851851851853,0)" xlink:href="#bx"/></g><path fill="#b2b2b2" d="M25-224v-37h50v37H25zM25 0v-190h50V0H25" id="bH"/><path fill="#b2b2b2" d="M195-6C206 82 75 100 31 46c-4-6-6-13-8-21l49-6c3 16 16 24 34 25 40 0 42-37 40-79-11 22-30 35-61 35-53 0-70-43-70-97 0-56 18-96 73-97 30 0 46 14 59 34l2-30h47zm-90-29c32 0 41-27 41-63 0-35-9-62-40-62-32 0-39 29-40 63 0 36 9 62 39 62" id="bI"/><path fill="#b2b2b2" d="M135-150c-39-12-60 13-60 57V0H25l-1-190h47c2 13-1 29 3 40 6-28 27-53 61-41v41" id="bJ"/><path fill="#b2b2b2" d="M220-157c-53 9-28 100-34 157h-49v-107c1-27-5-49-29-50C55-147 81-57 75 0H25l-1-190h47c2 12-1 28 3 38 10-53 101-56 108 0 13-22 24-43 59-42 82 1 51 116 57 194h-49v-107c-1-25-5-48-29-50" id="bK"/><g id="D"><use transform="matrix(0.04938271604938272,0,0,0.04938271604938272,0,0)" xlink:href="#bD"/><use transform="matrix(0.04938271604938272,0,0,0.04938271604938272,12.790123456790125,0)" xlink:href="#bH"/><use transform="matrix(0.04938271604938272,0,0,0.04938271604938272,17.7283950617284,0)" xlink:href="#bB"/><use transform="matrix(0.04938271604938272,0,0,0.04938271604938272,27.604938271604947,0)" xlink:href="#bI"/><use transform="matrix(0.04938271604938272,0,0,0.04938271604938272,38.41975308641976,0)" xlink:href="#bJ"/><use transform="matrix(0.04938271604938272,0,0,0.04938271604938272,45.33333333333334,0)" xlink:href="#bB"/><use transform="matrix(0.04938271604938272,0,0,0.04938271604938272,55.209876543209894,0)" xlink:href="#bK"/></g><path fill="#b2b2b2" d="M205 0l-28-72H64L36 0H1l101-248h38L239 0h-34zm-38-99l-47-123c-12 45-31 82-46 123h93" id="bL"/><path fill="#b2b2b2" d="M135-143c-3-34-86-38-87 0 15 53 115 12 119 90S17 21 10-45l28-5c4 36 97 45 98 0-10-56-113-15-118-90-4-57 82-63 122-42 12 7 21 19 24 35" id="bM"/><path fill="#b2b2b2" d="M106-169C34-169 62-67 57 0H25v-261h32l-1 103c12-21 28-36 61-36 89 0 53 116 60 194h-32v-121c2-32-8-49-39-48" id="bN"/><path fill="#b2b2b2" d="M24 0v-261h32V0H24" id="bO"/><path fill="#b2b2b2" d="M100-194c63 0 86 42 84 106H49c0 40 14 67 53 68 26 1 43-12 49-29l28 8c-11 28-37 45-77 45C44 4 14-33 15-96c1-61 26-98 85-98zm52 81c6-60-76-77-97-28-3 7-6 17-6 28h103" id="bP"/><path fill="#b2b2b2" d="M179-190L93 31C79 59 56 82 12 73V49c39 6 53-20 64-50L1-190h34L92-34l54-156h33" id="bQ"/><g id="E"><use transform="matrix(0.04938271604938272,0,0,0.04938271604938272,0,0)" xlink:href="#bL"/><use transform="matrix(0.04938271604938272,0,0,0.04938271604938272,11.851851851851853,0)" xlink:href="#bM"/><use transform="matrix(0.04938271604938272,0,0,0.04938271604938272,20.74074074074074,0)" xlink:href="#bN"/><use transform="matrix(0.04938271604938272,0,0,0.04938271604938272,30.617283950617285,0)" xlink:href="#bO"/><use transform="matrix(0.04938271604938272,0,0,0.04938271604938272,34.51851851851852,0)" xlink:href="#bP"/><use transform="matrix(0.04938271604938272,0,0,0.04938271604938272,44.39506172839506,0)" xlink:href="#bQ"/></g><path fill="#b2b2b2" d="M212-179c-10-28-35-45-73-45-59 0-87 40-87 99 0 60 29 101 89 101 43 0 62-24 78-52l27 14C228-24 195 4 139 4 59 4 22-46 18-125c-6-104 99-153 187-111 19 9 31 26 39 46" id="bR"/><path fill="#b2b2b2" d="M100-194c62-1 85 37 85 99 1 63-27 99-86 99S16-35 15-95c0-66 28-99 85-99zM99-20c44 1 53-31 53-75 0-43-8-75-51-75s-53 32-53 75 10 74 51 75" id="bS"/><path fill="#b2b2b2" d="M59-47c-2 24 18 29 38 22v24C64 9 27 4 27-40v-127H5v-23h24l9-43h21v43h35v23H59v120" id="bT"/><path fill="#b2b2b2" d="M114-163C36-179 61-72 57 0H25l-1-190h30c1 12-1 29 2 39 6-27 23-49 58-41v29" id="bU"/><g id="F"><use transform="matrix(0.04938271604938272,0,0,0.04938271604938272,0,0)" xlink:href="#bR"/><use transform="matrix(0.04938271604938272,0,0,0.04938271604938272,12.790123456790125,0)" xlink:href="#bS"/><use transform="matrix(0.04938271604938272,0,0,0.04938271604938272,22.66666666666667,0)" xlink:href="#bT"/><use transform="matrix(0.04938271604938272,0,0,0.04938271604938272,27.604938271604947,0)" xlink:href="#bT"/><use transform="matrix(0.04938271604938272,0,0,0.04938271604938272,32.543209876543216,0)" xlink:href="#bU"/><use transform="matrix(0.04938271604938272,0,0,0.04938271604938272,38.41975308641976,0)" xlink:href="#bP"/><use transform="matrix(0.04938271604938272,0,0,0.04938271604938272,48.296296296296305,0)" xlink:href="#bO"/><use transform="matrix(0.04938271604938272,0,0,0.04938271604938272,52.19753086419754,0)" xlink:href="#bO"/><use transform="matrix(0.04938271604938272,0,0,0.04938271604938272,56.09876543209877,0)" xlink:href="#bO"/></g><path fill="#b2b2b2" d="M32 76v-337h29V76H32" id="bV"/><use transform="matrix(0.04938271604938272,0,0,0.04938271604938272,0,0)" xlink:href="#bV" id="G"/><path fill="#b2b2b2" d="M185-189c-5-48-123-54-124 2 14 75 158 14 163 119 3 78-121 87-175 55-17-10-28-26-33-46l33-7c5 56 141 63 141-1 0-78-155-14-162-118-5-82 145-84 179-34 5 7 8 16 11 25" id="bW"/><path fill="#b2b2b2" d="M115-194c55 1 70 41 70 98S169 2 115 4C84 4 66-9 55-30l1 105H24l-1-265h31l2 30c10-21 28-34 59-34zm-8 174c40 0 45-34 45-75s-6-73-45-74c-42 0-51 32-51 76 0 43 10 73 51 73" id="bX"/><path fill="#b2b2b2" d="M210-169c-67 3-38 105-44 169h-31v-121c0-29-5-50-35-48C34-165 62-65 56 0H25l-1-190h30c1 10-1 24 2 32 10-44 99-50 107 0 11-21 27-35 58-36 85-2 47 119 55 194h-31v-121c0-29-5-49-35-48" id="bY"/><path fill="#b2b2b2" d="M115-194c53 0 69 39 70 98 0 66-23 100-70 100C84 3 66-7 56-30L54 0H23l1-261h32v101c10-23 28-34 59-34zm-8 174c40 0 45-34 45-75 0-40-5-75-45-74-42 0-51 32-51 76 0 43 10 73 51 73" id="bZ"/><g id="H"><use transform="matrix(0.04938271604938272,0,0,0.04938271604938272,0,0)" xlink:href="#bW"/><use transform="matrix(0.04938271604938272,0,0,0.04938271604938272,11.851851851851853,0)" xlink:href="#bP"/><use transform="matrix(0.04938271604938272,0,0,0.04938271604938272,21.7283950617284,0)" xlink:href="#bX"/><use transform="matrix(0.04938271604938272,0,0,0.04938271604938272,31.60493827160494,0)" xlink:href="#bT"/><use transform="matrix(0.04938271604938272,0,0,0.04938271604938272,36.543209876543216,0)" xlink:href="#bP"/><use transform="matrix(0.04938271604938272,0,0,0.04938271604938272,46.41975308641976,0)" xlink:href="#bY"/><use transform="matrix(0.04938271604938272,0,0,0.04938271604938272,61.18518518518519,0)" xlink:href="#bZ"/><use transform="matrix(0.04938271604938272,0,0,0.04938271604938272,71.06172839506173,0)" xlink:href="#bP"/><use transform="matrix(0.04938271604938272,0,0,0.04938271604938272,80.93827160493828,0)" xlink:href="#bU"/></g><path fill="#b2b2b2" d="M27 0v-27h64v-190l-56 39v-29l58-41h29v221h61V0H27" id="ca"/><path fill="#b2b2b2" d="M68-38c1 34 0 65-14 84H32c9-13 17-26 17-46H33v-38h35" id="cb"/><g id="I"><use transform="matrix(0.04938271604938272,0,0,0.04938271604938272,0,0)" xlink:href="#ca"/><use transform="matrix(0.04938271604938272,0,0,0.04938271604938272,8.54320987654321,0)" xlink:href="#ca"/><use transform="matrix(0.04938271604938272,0,0,0.04938271604938272,18.419753086419753,0)" xlink:href="#cb"/></g><path fill="#b2b2b2" d="M101-251c82-7 93 87 43 132L82-64C71-53 59-42 53-27h129V0H18c2-99 128-94 128-182 0-28-16-43-45-43s-46 15-49 41l-32-3c6-41 34-60 81-64" id="cc"/><path fill="#b2b2b2" d="M101-251c68 0 85 55 85 127S166 4 100 4C33 4 14-52 14-124c0-73 17-127 87-127zm-1 229c47 0 54-49 54-102s-4-102-53-102c-51 0-55 48-55 102 0 53 5 102 54 102" id="cd"/><path fill="#b2b2b2" d="M134-131c28 9 52 24 51 62-1 50-34 73-85 73S17-19 16-69c0-36 21-54 49-61-75-25-45-126 34-121 46 3 78 18 79 63 0 33-17 51-44 57zm-34-11c31 1 46-15 46-44 0-28-17-43-47-42-29 0-46 13-45 42 1 28 16 44 46 44zm1 122c35 0 51-18 51-52 0-30-18-46-53-46-33 0-51 17-51 47 0 34 19 51 53 51" id="ce"/><g id="J"><use transform="matrix(0.04938271604938272,0,0,0.04938271604938272,0,0)" xlink:href="#cc"/><use transform="matrix(0.04938271604938272,0,0,0.04938271604938272,9.876543209876544,0)" xlink:href="#cd"/><use transform="matrix(0.04938271604938272,0,0,0.04938271604938272,19.75308641975309,0)" xlink:href="#ca"/><use transform="matrix(0.04938271604938272,0,0,0.04938271604938272,29.629629629629633,0)" xlink:href="#ce"/></g><path fill="#fff" d="M270-703c81-2 142 16 187 48v159h-26l-44-113c-29-15-58-27-110-26-74 3-130 32-130 106 0 126 160 125 239 187 44 35 87 78 84 156C466-56 380 8 250 11 165 13 102-9 55-43v-156h26l41 115c30 18 67 27 121 25 77-3 137-36 137-115 0-130-158-131-238-194-44-35-87-78-84-158 5-120 91-174 212-177" id="cf"/><g id="K"><use transform="matrix(0.017777777777777778,0,0,0.017777777777777778,0,0)" xlink:href="#cf"/><use transform="matrix(0.017777777777777778,0,0,0.017777777777777778,9.333333333333334,0)" xlink:href="#aW"/><use transform="matrix(0.017777777777777778,0,0,0.017777777777777778,15.413333333333334,0)" xlink:href="#aX"/><use transform="matrix(0.017777777777777778,0,0,0.017777777777777778,25.04888888888889,0)" xlink:href="#ar"/><use transform="matrix(0.017777777777777778,0,0,0.017777777777777778,32,0)" xlink:href="#at"/></g><g id="L"><use transform="matrix(0.018,0,0,0.018,0,0)" xlink:href="#aw"/><use transform="matrix(0.018,0,0,0.018,10.998,0)" xlink:href="#aK"/><use transform="matrix(0.018,0,0,0.018,19.674,0)" xlink:href="#aO"/><use transform="matrix(0.018,0,0,0.018,35.81999999999999,0)" xlink:href="#ay"/></g><path fill="#333" d="M343-438c-73 0-104 54-141 95v280l78 37V0H30v-26l88-37v-600l-93-27v-23l177-41v331c34-39 86-86 154-86 100 1 161 43 161 145v301l88 37V0H350v-26l83-37v-298c-1-54-38-77-90-77" id="cg"/><path fill="#333" d="M116-498c-10-162 38-266 193-264h66v148h-26l-37-88c-104-4-119 93-113 204h119v68H198v367l110 37V0H27v-26l88-37v-367H26v-38" id="ch"/><g id="M"><use transform="matrix(0.018,0,0,0.018,0,0)" xlink:href="#aG"/><use transform="matrix(0.018,0,0,0.018,8.37,0)" xlink:href="#cg"/><use transform="matrix(0.018,0,0,0.018,19.439999999999998,0)" xlink:href="#aK"/><use transform="matrix(0.018,0,0,0.018,28.115999999999996,0)" xlink:href="#aA"/><use transform="matrix(0.018,0,0,0.018,35.37,0)" xlink:href="#ch"/><use transform="matrix(0.018,0,0,0.018,41.562,0)" xlink:href="#au"/><use transform="matrix(0.018,0,0,0.018,46.961999999999996,0)" xlink:href="#ay"/><use transform="matrix(0.018,0,0,0.018,55.87200000000001,0)" xlink:href="#aS"/><use transform="matrix(0.018,0,0,0.018,61.397999999999996,0)" xlink:href="#av"/></g><g id="N"><use transform="matrix(0.018,0,0,0.018,0,0)" xlink:href="#aK"/><use transform="matrix(0.018,0,0,0.018,8.676,0)" xlink:href="#av"/><use transform="matrix(0.018,0,0,0.018,18.918,0)" xlink:href="#av"/><use transform="matrix(0.018,0,0,0.018,29.159999999999997,0)" xlink:href="#aA"/><use transform="matrix(0.018,0,0,0.018,36.19799999999999,0)" xlink:href="#ay"/><use transform="matrix(0.018,0,0,0.018,45.10799999999999,0)" xlink:href="#aL"/><use transform="matrix(0.018,0,0,0.018,52.75799999999999,0)" xlink:href="#aL"/></g><g id="O"><use transform="matrix(0.018,0,0,0.018,0,0)" xlink:href="#aF"/><use transform="matrix(0.018,0,0,0.018,10.475999999999999,0)" xlink:href="#cg"/><use transform="matrix(0.018,0,0,0.018,21.546,0)" xlink:href="#aM"/><use transform="matrix(0.018,0,0,0.018,31.301999999999996,0)" xlink:href="#aw"/><use transform="matrix(0.018,0,0,0.018,42.3,0)" xlink:href="#ay"/></g><path fill="#333" d="M144-459c47 125 101 243 139 377 35-130 83-246 123-370l-69-35v-26h210v26l-61 35C419-263 339-36 271 135c-33 87-88 133-212 123v-59c68 6 106-10 127-60 18-42 35-96 50-140L54-459l-64-28v-26h227v26" id="ci"/><g id="P"><use transform="matrix(0.018,0,0,0.018,0,0)" xlink:href="#aG"/><use transform="matrix(0.018,0,0,0.018,8.37,0)" xlink:href="#au"/><use transform="matrix(0.018,0,0,0.018,13.77,0)" xlink:href="#ax"/><use transform="matrix(0.018,0,0,0.018,19.926,0)" xlink:href="#ci"/></g><g id="Q"><use transform="matrix(0.018,0,0,0.018,0,0)" xlink:href="#aL"/><use transform="matrix(0.018,0,0,0.018,7.6499999999999995,0)" xlink:href="#ax"/><use transform="matrix(0.018,0,0,0.018,13.806,0)" xlink:href="#aK"/><use transform="matrix(0.018,0,0,0.018,22.482,0)" xlink:href="#ax"/><use transform="matrix(0.018,0,0,0.018,28.637999999999998,0)" xlink:href="#ay"/></g><path fill="#fff" d="M233-514c87 3 156 45 156 132v302l83 27v23L310 12v-71c-35 38-70 69-138 70C85 12 27-46 30-134c4-141 149-158 281-173-1-16 1-41 0-60-1-92-140-105-204-56l-36 86H45c1-38-1-78 1-114 49-38 100-66 187-63zm77 261c-95 7-197 18-199 118-1 55 31 89 86 87 57-2 84-40 113-72v-133" id="cj"/><g id="R"><use transform="matrix(0.017777777777777778,0,0,0.017777777777777778,0,0)" xlink:href="#aT"/><use transform="matrix(0.017777777777777778,0,0,0.017777777777777778,10.95111111111111,0)" xlink:href="#cj"/><use transform="matrix(0.017777777777777778,0,0,0.017777777777777778,19.52,0)" xlink:href="#ar"/></g><g id="S"><use transform="matrix(0.018,0,0,0.018,0,0)" xlink:href="#aL"/><use transform="matrix(0.018,0,0,0.018,7.6499999999999995,0)" xlink:href="#ay"/><use transform="matrix(0.018,0,0,0.018,16.56,0)" xlink:href="#aA"/><use transform="matrix(0.018,0,0,0.018,23.813999999999997,0)" xlink:href="#au"/><use transform="matrix(0.018,0,0,0.018,29.214,0)" xlink:href="#ay"/><use transform="matrix(0.018,0,0,0.018,38.123999999999995,0)" xlink:href="#aL"/></g><g id="T"><use transform="matrix(0.018,0,0,0.018,0,0)" xlink:href="#ci"/><use transform="matrix(0.018,0,0,0.018,9.575999999999999,0)" xlink:href="#ay"/><use transform="matrix(0.018,0,0,0.018,18.485999999999997,0)" xlink:href="#aK"/><use transform="matrix(0.018,0,0,0.018,27.162,0)" xlink:href="#aA"/></g><g id="U"><use transform="matrix(0.018,0,0,0.018,0,0)" xlink:href="#au"/><use transform="matrix(0.018,0,0,0.018,5.3999999999999995,0)" xlink:href="#aw"/><use transform="matrix(0.018,0,0,0.018,16.398,0)" xlink:href="#ax"/><use transform="matrix(0.018,0,0,0.018,22.554,0)" xlink:href="#ay"/><use transform="matrix(0.018,0,0,0.018,31.464,0)" xlink:href="#az"/><use transform="matrix(0.018,0,0,0.018,40.068,0)" xlink:href="#ay"/><use transform="matrix(0.018,0,0,0.018,48.977999999999994,0)" xlink:href="#aA"/></g><g id="V"><use transform="matrix(0.018,0,0,0.018,0,0)" xlink:href="#aF"/><use transform="matrix(0.018,0,0,0.018,10.475999999999999,0)" xlink:href="#aI"/><use transform="matrix(0.018,0,0,0.018,21.024,0)" xlink:href="#aA"/><use transform="matrix(0.018,0,0,0.018,28.061999999999998,0)" xlink:href="#aG"/><use transform="matrix(0.018,0,0,0.018,36.431999999999995,0)" xlink:href="#cg"/><use transform="matrix(0.018,0,0,0.018,47.501999999999995,0)" xlink:href="#aK"/><use transform="matrix(0.018,0,0,0.018,56.178,0)" xlink:href="#aL"/><use transform="matrix(0.018,0,0,0.018,63.827999999999996,0)" xlink:href="#ay"/><use transform="matrix(0.018,0,0,0.018,72.738,0)" xlink:href="#aJ"/><use transform="matrix(0.018,0,0,0.018,81.738,0)" xlink:href="#aF"/><use transform="matrix(0.018,0,0,0.018,92.214,0)" xlink:href="#aA"/><use transform="matrix(0.018,0,0,0.018,99.468,0)" xlink:href="#au"/><use transform="matrix(0.018,0,0,0.018,104.86800000000001,0)" xlink:href="#aG"/><use transform="matrix(0.018,0,0,0.018,113.23800000000001,0)" xlink:href="#ay"/></g><path fill="#333" d="M377-449c-80 7-173 3-259 4l-37 88H55v-156h463C405-364 299-207 180-64c81-5 172-2 258-3l37-88h26V0H40c113-149 219-305 337-449" id="ck"/><g id="W"><use transform="matrix(0.018,0,0,0.018,0,0)" xlink:href="#ay"/><use transform="matrix(0.018,0,0,0.018,8.91,0)" xlink:href="#aw"/><use transform="matrix(0.018,0,0,0.018,19.908,0)" xlink:href="#az"/><use transform="matrix(0.018,0,0,0.018,28.512,0)" xlink:href="#au"/><use transform="matrix(0.018,0,0,0.018,33.912,0)" xlink:href="#aw"/><use transform="matrix(0.018,0,0,0.018,44.91,0)" xlink:href="#ay"/><use transform="matrix(0.018,0,0,0.018,53.81999999999999,0)" xlink:href="#aJ"/><use transform="matrix(0.018,0,0,0.018,62.81999999999999,0)" xlink:href="#aL"/><use transform="matrix(0.018,0,0,0.018,70.47,0)" xlink:href="#au"/><use transform="matrix(0.018,0,0,0.018,75.87,0)" xlink:href="#ck"/><use transform="matrix(0.018,0,0,0.018,86.004,0)" xlink:href="#ay"/></g><g id="X"><use transform="matrix(0.018,0,0,0.018,0,0)" xlink:href="#av"/><use transform="matrix(0.018,0,0,0.018,10.241999999999999,0)" xlink:href="#ay"/><use transform="matrix(0.018,0,0,0.018,19.152,0)" xlink:href="#aG"/><use transform="matrix(0.018,0,0,0.018,27.522,0)" xlink:href="#au"/><use transform="matrix(0.018,0,0,0.018,32.922,0)" xlink:href="#aO"/><use transform="matrix(0.018,0,0,0.018,49.068,0)" xlink:href="#aK"/><use transform="matrix(0.018,0,0,0.018,57.74400000000001,0)" xlink:href="#aS"/></g><g id="Y"><use transform="matrix(0.018,0,0,0.018,0,0)" xlink:href="#ch"/><use transform="matrix(0.018,0,0,0.018,6.191999999999999,0)" xlink:href="#aI"/><use transform="matrix(0.018,0,0,0.018,16.74,0)" xlink:href="#ay"/><use transform="matrix(0.018,0,0,0.018,25.65,0)" xlink:href="#aS"/><use transform="matrix(0.018,0,0,0.018,31.176,0)" xlink:href="#aJ"/><use transform="matrix(0.018,0,0,0.018,40.176,0)" xlink:href="#aL"/><use transform="matrix(0.018,0,0,0.018,47.82600000000001,0)" xlink:href="#ci"/><use transform="matrix(0.018,0,0,0.018,57.402,0)" xlink:href="#aL"/><use transform="matrix(0.018,0,0,0.018,65.052,0)" xlink:href="#ax"/><use transform="matrix(0.018,0,0,0.018,71.20800000000001,0)" xlink:href="#ay"/><use transform="matrix(0.018,0,0,0.018,80.11800000000001,0)" xlink:href="#aO"/></g><g id="Z"><use transform="matrix(0.018,0,0,0.018,0,0)" xlink:href="#ax"/><use transform="matrix(0.018,0,0,0.018,6.156,0)" xlink:href="#aK"/><use transform="matrix(0.018,0,0,0.018,14.832,0)" xlink:href="#aw"/><use transform="matrix(0.018,0,0,0.018,25.83,0)" xlink:href="#aH"/><use transform="matrix(0.018,0,0,0.018,35.946,0)" xlink:href="#aJ"/><use transform="matrix(0.018,0,0,0.018,44.946,0)" xlink:href="#aG"/><use transform="matrix(0.018,0,0,0.018,53.315999999999995,0)" xlink:href="#aK"/><use transform="matrix(0.018,0,0,0.018,61.992,0)" xlink:href="#aF"/><use transform="matrix(0.018,0,0,0.018,72.46799999999999,0)" xlink:href="#aK"/><use transform="matrix(0.018,0,0,0.018,81.14399999999999,0)" xlink:href="#aG"/><use transform="matrix(0.018,0,0,0.018,89.514,0)" xlink:href="#au"/><use transform="matrix(0.018,0,0,0.018,94.91400000000002,0)" xlink:href="#ax"/><use transform="matrix(0.018,0,0,0.018,101.07000000000001,0)" xlink:href="#ci"/></g><path fill="#333" d="M141-456c35 126 81 241 105 378 39-150 90-289 134-434h83c42 145 93 282 127 436 28-133 74-250 110-375l-69-34v-26h211v26l-60 33L624 0h-85c-40-145-95-275-123-432-35 154-89 287-133 432h-85L53-456l-63-29v-26h225v26" id="cl"/><g id="aa"><use transform="matrix(0.018,0,0,0.018,0,0)" xlink:href="#aF"/><use transform="matrix(0.018,0,0,0.018,10.475999999999999,0)" xlink:href="#aM"/><use transform="matrix(0.018,0,0,0.018,20.232,0)" xlink:href="#cl"/><use transform="matrix(0.018,0,0,0.018,35.117999999999995,0)" xlink:href="#ay"/><use transform="matrix(0.018,0,0,0.018,44.02799999999999,0)" xlink:href="#aA"/></g><g id="ab"><use transform="matrix(0.018,0,0,0.018,0,0)" xlink:href="#aL"/><use transform="matrix(0.018,0,0,0.018,7.6499999999999995,0)" xlink:href="#ay"/><use transform="matrix(0.018,0,0,0.018,16.56,0)" xlink:href="#aK"/><use transform="matrix(0.018,0,0,0.018,25.235999999999997,0)" xlink:href="#ax"/><use transform="matrix(0.018,0,0,0.018,31.391999999999996,0)" xlink:href="#au"/><use transform="matrix(0.018,0,0,0.018,36.791999999999994,0)" xlink:href="#aw"/><use transform="matrix(0.018,0,0,0.018,47.789999999999985,0)" xlink:href="#az"/><use transform="matrix(0.018,0,0,0.018,56.393999999999984,0)" xlink:href="#aJ"/><use transform="matrix(0.018,0,0,0.018,65.39399999999999,0)" xlink:href="#aG"/><use transform="matrix(0.018,0,0,0.018,73.764,0)" xlink:href="#aK"/><use transform="matrix(0.018,0,0,0.018,82.44,0)" xlink:href="#aF"/><use transform="matrix(0.018,0,0,0.018,92.916,0)" xlink:href="#aK"/><use transform="matrix(0.018,0,0,0.018,101.592,0)" xlink:href="#aG"/><use transform="matrix(0.018,0,0,0.018,109.962,0)" xlink:href="#au"/><use transform="matrix(0.018,0,0,0.018,115.36200000000001,0)" xlink:href="#ax"/><use transform="matrix(0.018,0,0,0.018,121.518,0)" xlink:href="#ci"/></g><g id="ac"><use transform="matrix(0.018,0,0,0.018,0,0)" xlink:href="#ax"/><use transform="matrix(0.018,0,0,0.018,6.156,0)" xlink:href="#aA"/><use transform="matrix(0.018,0,0,0.018,13.410000000000002,0)" xlink:href="#aK"/><use transform="matrix(0.018,0,0,0.018,22.086,0)" xlink:href="#aw"/><use transform="matrix(0.018,0,0,0.018,33.083999999999996,0)" xlink:href="#aL"/><use transform="matrix(0.018,0,0,0.018,40.733999999999995,0)" xlink:href="#aO"/><use transform="matrix(0.018,0,0,0.018,56.879999999999995,0)" xlink:href="#au"/><use transform="matrix(0.018,0,0,0.018,62.279999999999994,0)" xlink:href="#aL"/><use transform="matrix(0.018,0,0,0.018,69.92999999999999,0)" xlink:href="#aL"/><use transform="matrix(0.018,0,0,0.018,77.58,0)" xlink:href="#au"/><use transform="matrix(0.018,0,0,0.018,82.98,0)" xlink:href="#aM"/><use transform="matrix(0.018,0,0,0.018,92.736,0)" xlink:href="#aw"/></g><g id="ad"><use transform="matrix(0.018,0,0,0.018,0,0)" xlink:href="#aR"/><use transform="matrix(0.018,0,0,0.018,10.26,0)" xlink:href="#aM"/><use transform="matrix(0.018,0,0,0.018,20.016,0)" xlink:href="#av"/><use transform="matrix(0.018,0,0,0.018,30.257999999999992,0)" xlink:href="#ci"/><use transform="matrix(0.018,0,0,0.018,39.833999999999996,0)" xlink:href="#aJ"/><use transform="matrix(0.018,0,0,0.018,48.833999999999996,0)" xlink:href="#ax"/><use transform="matrix(0.018,0,0,0.018,54.989999999999995,0)" xlink:href="#ci"/><use transform="matrix(0.018,0,0,0.018,64.56599999999999,0)" xlink:href="#aF"/><use transform="matrix(0.018,0,0,0.018,75.04199999999999,0)" xlink:href="#ay"/></g><path fill="#333" d="M142-459c43 126 97 241 130 377 35-133 90-247 133-372l-71-34v-26h211v26l-59 33L307 0h-80L53-459l-63-29v-26h225v26" id="cm"/><g id="ae"><use transform="matrix(0.018,0,0,0.018,0,0)" xlink:href="#av"/><use transform="matrix(0.018,0,0,0.018,10.241999999999999,0)" xlink:href="#aA"/><use transform="matrix(0.018,0,0,0.018,17.496,0)" xlink:href="#au"/><use transform="matrix(0.018,0,0,0.018,22.895999999999997,0)" xlink:href="#cm"/><use transform="matrix(0.018,0,0,0.018,32.43599999999999,0)" xlink:href="#ay"/></g><g id="af"><use transform="matrix(0.018,0,0,0.018,0,0)" xlink:href="#cl"/><use transform="matrix(0.018,0,0,0.018,14.886,0)" xlink:href="#cg"/><use transform="matrix(0.018,0,0,0.018,25.955999999999992,0)" xlink:href="#ay"/><use transform="matrix(0.018,0,0,0.018,34.866,0)" xlink:href="#ay"/><use transform="matrix(0.018,0,0,0.018,43.775999999999996,0)" xlink:href="#aS"/><use transform="matrix(0.018,0,0,0.018,49.302,0)" xlink:href="#aR"/><use transform="matrix(0.018,0,0,0.018,59.56199999999999,0)" xlink:href="#aK"/><use transform="matrix(0.018,0,0,0.018,68.23799999999999,0)" xlink:href="#aL"/><use transform="matrix(0.018,0,0,0.018,75.88799999999999,0)" xlink:href="#ay"/></g><g id="ag"><use transform="matrix(0.018,0,0,0.018,0,0)" xlink:href="#au"/><use transform="matrix(0.018,0,0,0.018,5.3999999999999995,0)" xlink:href="#aw"/><use transform="matrix(0.018,0,0,0.018,16.398,0)" xlink:href="#ax"/><use transform="matrix(0.018,0,0,0.018,22.554,0)" xlink:href="#ay"/><use transform="matrix(0.018,0,0,0.018,31.464,0)" xlink:href="#az"/><use transform="matrix(0.018,0,0,0.018,40.068,0)" xlink:href="#ay"/><use transform="matrix(0.018,0,0,0.018,48.977999999999994,0)" xlink:href="#aA"/><use transform="matrix(0.018,0,0,0.018,56.23199999999999,0)" xlink:href="#ch"/><use transform="matrix(0.018,0,0,0.018,62.42399999999999,0)" xlink:href="#au"/><use transform="matrix(0.018,0,0,0.018,67.824,0)" xlink:href="#ay"/><use transform="matrix(0.018,0,0,0.018,76.734,0)" xlink:href="#aS"/><use transform="matrix(0.018,0,0,0.018,82.25999999999999,0)" xlink:href="#av"/></g><path d="M27 0v-27h64v-190l-56 39v-29l58-41h29v221h61V0H27" id="cn"/><path d="M33 0v-38h34V0H33" id="co"/><path d="M117-194c89-4 53 116 60 194h-32v-121c0-31-8-49-39-48C34-167 62-67 57 0H25l-1-190h30c1 10-1 24 2 32 11-22 29-35 61-36" id="cp"/><g id="ah"><use transform="matrix(0.05,0,0,0.05,0,0)" xlink:href="#cn"/><use transform="matrix(0.05,0,0,0.05,10,0)" xlink:href="#co"/><use transform="matrix(0.05,0,0,0.05,15,0)" xlink:href="#co"/><use transform="matrix(0.05,0,0,0.05,20,0)" xlink:href="#cp"/></g><g id="ai"><use transform="matrix(0.05,0,0,0.05,0,0)" xlink:href="#cp"/><use transform="matrix(0.05,0,0,0.05,10,0)" xlink:href="#co"/><use transform="matrix(0.05,0,0,0.05,15,0)" xlink:href="#co"/><use transform="matrix(0.05,0,0,0.05,20,0)" xlink:href="#cp"/></g><path d="M233-177c-1 41-23 64-60 70L243 0h-38l-65-103H63V0H30v-248c88 3 205-21 203 71zM63-129c60-2 137 13 137-47 0-61-80-42-137-45v92" id="cq"/><path d="M100-194c63 0 86 42 84 106H49c0 40 14 67 53 68 26 1 43-12 49-29l28 8c-11 28-37 45-77 45C44 4 14-33 15-96c1-61 26-98 85-98zm52 81c6-60-76-77-97-28-3 7-6 17-6 28h103" id="cr"/><path d="M59-47c-2 24 18 29 38 22v24C64 9 27 4 27-40v-127H5v-23h24l9-43h21v43h35v23H59v120" id="cs"/><path d="M85-194c31 0 48 13 60 33l-1-100h32l1 261h-30c-2-10 0-23-3-31C134-8 116 4 85 4 32 4 16-35 15-94c0-66 23-100 70-100zm9 24c-40 0-46 34-46 75 0 40 6 74 45 74 42 0 51-32 51-76 0-42-9-74-50-73" id="ct"/><g id="aj"><use transform="matrix(0.05,0,0,0.05,0,0)" xlink:href="#cq"/><use transform="matrix(0.05,0,0,0.05,12.950000000000001,0)" xlink:href="#cr"/><use transform="matrix(0.05,0,0,0.05,22.950000000000003,0)" xlink:href="#cp"/><use transform="matrix(0.05,0,0,0.05,32.95,0)" xlink:href="#cs"/><use transform="matrix(0.05,0,0,0.05,37.95,0)" xlink:href="#cr"/><use transform="matrix(0.05,0,0,0.05,47.95,0)" xlink:href="#ct"/></g><path d="M115-194c53 0 69 39 70 98 0 66-23 100-70 100C84 3 66-7 56-30L54 0H23l1-261h32v101c10-23 28-34 59-34zm-8 174c40 0 45-34 45-75 0-40-5-75-45-74-42 0-51 32-51 76 0 43 10 73 51 73" id="cu"/><path d="M179-190L93 31C79 59 56 82 12 73V49c39 6 53-20 64-50L1-190h34L92-34l54-156h33" id="cv"/><g id="ak"><use transform="matrix(0.05,0,0,0.05,0,0)" xlink:href="#cu"/><use transform="matrix(0.05,0,0,0.05,10,0)" xlink:href="#cv"/></g><path d="M18-27v-27l151-64-151-65v-27l175 74v36" id="cw"/><use transform="matrix(0.05,0,0,0.05,0,0)" xlink:href="#cw" id="al"/><path d="M18-100v-36l175-74v27L42-118l151 64v27" id="cx"/><use transform="matrix(0.05,0,0,0.05,0,0)" xlink:href="#cx" id="am"/><g id="an"><use transform="matrix(0.05,0,0,0.05,0,0)" xlink:href="#cq"/><use transform="matrix(0.05,0,0,0.05,12.950000000000001,0)" xlink:href="#cr"/><use transform="matrix(0.05,0,0,0.05,22.950000000000003,0)" xlink:href="#cp"/><use transform="matrix(0.05,0,0,0.05,32.95,0)" xlink:href="#cs"/><use transform="matrix(0.05,0,0,0.05,37.95,0)" xlink:href="#cr"/><use transform="matrix(0.05,0,0,0.05,47.95,0)" xlink:href="#ct"/></g><g id="ao"><use transform="matrix(0.05,0,0,0.05,0,0)" xlink:href="#cq"/><use transform="matrix(0.05,0,0,0.05,12.950000000000001,0)" xlink:href="#cr"/><use transform="matrix(0.05,0,0,0.05,22.950000000000003,0)" xlink:href="#cp"/><use transform="matrix(0.05,0,0,0.05,32.95,0)" xlink:href="#cs"/><use transform="matrix(0.05,0,0,0.05,37.95,0)" xlink:href="#cr"/><use transform="matrix(0.05,0,0,0.05,47.95,0)" xlink:href="#ct"/></g><path d="M101-234c-31-9-42 10-38 44h38v23H63V0H32v-167H5v-23h27c-7-52 17-82 69-68v24" id="cy"/><path d="M114-163C36-179 61-72 57 0H25l-1-190h30c1 12-1 29 2 39 6-27 23-49 58-41v29" id="cz"/><path d="M100-194c62-1 85 37 85 99 1 63-27 99-86 99S16-35 15-95c0-66 28-99 85-99zM99-20c44 1 53-31 53-75 0-43-8-75-51-75s-53 32-53 75 10 74 51 75" id="cA"/><path d="M210-169c-67 3-38 105-44 169h-31v-121c0-29-5-50-35-48C34-165 62-65 56 0H25l-1-190h30c1 10-1 24 2 32 10-44 99-50 107 0 11-21 27-35 58-36 85-2 47 119 55 194h-31v-121c0-29-5-49-35-48" id="cB"/><g id="ap"><use transform="matrix(0.05,0,0,0.05,0,0)" xlink:href="#cy"/><use transform="matrix(0.05,0,0,0.05,5,0)" xlink:href="#cz"/><use transform="matrix(0.05,0,0,0.05,10.95,0)" xlink:href="#cA"/><use transform="matrix(0.05,0,0,0.05,20.95,0)" xlink:href="#cB"/></g></defs></g></svg>